<?xml version="1.0" encoding="UTF-8"?>
<svg version="1.1" xmlns="http://www.w3.org/2000/svg" width="500" height="500">
<path d="M0 0 C62.37 0 124.74 0 189 0 C190.99462952 6.64876507 192.72137603 12.9690489 193.97265625 19.7421875 C194.14123642 20.63181183 194.30981659 21.52143616 194.48350525 22.4380188 C195.01482607 25.24943294 195.53863968 28.06218737 196.0625 30.875 C196.41685698 32.75138915 196.77167139 34.62769198 197.12695312 36.50390625 C202.90372523 67.1080909 202.90372523 67.1080909 201 73 C198.80176185 75.70552388 197.10443333 77.44778333 194 79 C192.00039988 79.039992 189.99952758 79.04346799 188 79 C188 79.99 188 80.98 188 82 C188.60585938 82.02578125 189.21171875 82.0515625 189.8359375 82.078125 C199.34200183 82.72161243 207.36934234 85.35530919 214.3671875 92.02734375 C218.34119491 96.8284771 219.28465847 101.93775172 219 108.0625 C217.69565642 118.06709279 213.93179684 127.61191815 210.34863281 136.98535156 C206.59185148 146.83834612 203.87375146 156.62117358 202 167 C201.80664062 168.03511719 201.61328125 169.07023438 201.4140625 170.13671875 C200.7741206 176.10749745 200.76505389 182.06126652 200.75 188.0625 C200.74766357 188.71986145 200.74532715 189.3772229 200.74291992 190.05450439 C200.72667091 202.21873537 201.90729335 214.0167631 204 226 C204.886875 225.21625 205.77375 224.4325 206.6875 223.625 C212.16709444 219.08822639 217.00788504 218.55021641 223.9921875 218.6875 C229.99288936 219.31094954 233.60259043 221.60259043 237.8125 225.8125 C240.67587133 229.98484109 243 233.80839659 243 239 C243.57032959 238.99476318 244.14065918 238.98952637 244.72827148 238.98413086 C247.29800323 238.96341779 249.86771747 238.9503581 252.4375 238.9375 C253.33533203 238.92912109 254.23316406 238.92074219 255.15820312 238.91210938 C256.43920898 238.90727539 256.43920898 238.90727539 257.74609375 238.90234375 C258.53685303 238.89710693 259.3276123 238.89187012 260.14233398 238.88647461 C262 239 262 239 263 240 C263.26109077 241.88295658 263.459251 243.7746702 263.63256836 245.66772461 C263.74616196 246.88507797 263.85975555 248.10243134 263.97679138 249.35667419 C264.09795398 250.70521768 264.21896709 252.0537746 264.33984375 253.40234375 C264.4678076 254.79597521 264.5961145 256.18957521 264.7247467 257.58314514 C264.99561537 260.52792274 265.26347706 263.47295331 265.52905273 266.41821289 C265.86205852 270.1106097 266.20040813 273.80248851 266.54083824 277.49420738 C268.1832231 295.31859439 269.69458666 313.14725152 271 331 C266.31460178 334.63023115 262.14220065 334.42663287 256.47485352 334.38818359 C255.04445488 334.39606903 255.04445488 334.39606903 253.5851593 334.40411377 C250.43290807 334.4173133 247.28116265 334.40856933 244.12890625 334.3984375 C241.92756555 334.40045974 239.7262255 334.40337244 237.52488708 334.40713501 C232.90560544 334.41155957 228.28649775 334.4051285 223.66723633 334.39111328 C217.77998848 334.37411186 211.8931537 334.38380425 206.00592136 334.40183067 C201.45451323 334.41274233 196.9032007 334.40918697 192.35178947 334.4014473 C190.1835214 334.39946091 188.01524434 334.40184899 185.84698677 334.40888596 C165.00114229 334.46164657 143.19734689 332.50936972 127.2265625 317.3125 C120.55476777 310.0223438 119.42103715 303.77734283 119.66015625 294.01171875 C120.68569056 278.84038026 128.02957056 264.26894694 133.93359375 250.47265625 C140.12405611 235.93154371 144.063841 222.13136964 144.015625 206.171875 C144.01224121 204.71152832 144.01224121 204.71152832 144.00878906 203.22167969 C144.00588867 202.48852539 144.00298828 201.75537109 144 201 C141.94611876 205.16073052 139.9062676 209.32819184 137.875 213.5 C137.57421539 214.116474 137.27343079 214.732948 136.96353149 215.36810303 C133.49339027 222.5011905 130.22139308 229.5956104 127.6875 237.125 C124.83766575 245.16255649 120.61836095 250.98942498 113.3125 255.5 C105.4274683 259.07058039 97.58622367 258.77665672 89.4609375 256.1015625 C83.25573043 253.32399362 78.61595591 248.69574229 75.90234375 242.4765625 C74.32436891 238.14567051 72.96711277 233.75170178 71.63671875 229.33984375 C69.41997853 222.02856737 67.039671 214.76853996 64.6875 207.5 C64.22567232 206.07090684 63.76391961 204.64178945 63.30224609 203.21264648 C62.20230379 199.80816995 61.10142521 196.40399711 60 193 C58.97022596 199.61046831 58.78054262 206.0101198 58.75 212.6875 C58.729375 213.79544922 58.70875 214.90339844 58.6875 216.04492188 C58.62954417 228.44022524 61.98585494 238.72413392 66.875 250 C67.7265625 252 68.578125 254 69.4296875 256 C70.74090872 259.06261125 72.05361094 262.1245416 73.37084961 265.18457031 C78.9142329 278.22615687 83.3413433 294.42096592 78.9375 308.5625 C73.44661333 318.3043957 64.24599331 323.42991429 53.77539062 326.69335938 C40.28278554 330.38141375 26.88772813 330.52299152 13 330 C11.69417969 329.96777344 10.38835937 329.93554688 9.04296875 329.90234375 C-2.96769566 329.34669024 -14.60136615 325.18659897 -22.875 316.125 C-27.50512767 309.31598872 -28.82275738 303.18438081 -28 295 C-27.53216708 292.88139933 -27.02316742 290.77153199 -26.4765625 288.671875 C-26.20150879 287.60549805 -25.92645508 286.53912109 -25.64306641 285.44042969 C-25.43085449 284.63508789 -25.21864258 283.82974609 -25 283 C-25.72805344 283.01110306 -26.45610687 283.02220612 -27.20622253 283.03364563 C-34.07696127 283.13394863 -40.94759018 283.21001607 -47.81887341 283.25906086 C-51.35132845 283.28512388 -54.88317713 283.32045866 -58.4152832 283.37719727 C-62.47873661 283.44206064 -66.54155598 283.46620732 -70.60546875 283.48828125 C-71.8702153 283.51408768 -73.13496185 283.5398941 -74.43803406 283.56648254 C-84.20869994 283.56960737 -84.20869994 283.56960737 -87.2980957 280.68823242 C-89.56349903 277.10992859 -89.74290391 275.16026187 -89 271 C-86.46603588 267.80882211 -84.98170194 266.19233792 -80.93107605 265.39872742 C-79.78746109 265.40983047 -78.64384613 265.42093353 -77.46557617 265.43237305 C-75.51411934 265.43293953 -75.51411934 265.43293953 -73.52323914 265.43351746 C-72.11313917 265.45904705 -70.70304908 265.48512697 -69.29296875 265.51171875 C-67.84281129 265.52105097 -66.392638 265.52816515 -64.94245911 265.53315735 C-61.136241 265.55219565 -57.33098568 265.60126694 -53.52514648 265.65667725 C-49.63733951 265.70793945 -45.74937607 265.73068613 -41.86132812 265.75585938 C-34.24044776 265.80939064 -26.62035908 265.89466262 -19 266 C-18.70064796 264.89530617 -18.70064796 264.89530617 -18.39524841 263.76829529 C-18.13002884 262.79215775 -17.86480927 261.8160202 -17.59155273 260.81030273 C-17.33010971 259.84696518 -17.06866669 258.88362762 -16.79930115 257.89109802 C-16.07275531 255.26315829 -15.31517789 252.64764114 -14.53515625 250.03515625 C-11.89905499 241.16995388 -9.4975059 232.32403715 -7.6875 223.25 C-7.52838135 222.45343994 -7.3692627 221.65687988 -7.20532227 220.83618164 C-3.23799817 200.08251321 -5.17589344 180.84999548 -12 161 C-12.61582966 159.0870488 -13.22189038 157.17088749 -13.8125 155.25 C-14.04582031 154.51265625 -14.27914062 153.7753125 -14.51953125 153.015625 C-15 151 -15 151 -15 147 C-16.97033203 147.08701172 -16.97033203 147.08701172 -18.98046875 147.17578125 C-20.71611023 147.22269048 -22.45179023 147.26818939 -24.1875 147.3125 C-25.48397461 147.3753418 -25.48397461 147.3753418 -26.80664062 147.43945312 C-31.39036459 147.52726393 -33.33185206 147.52442341 -37.05078125 144.60546875 C-40.1145519 140.51020819 -40.51575739 138.15757388 -40 133 C-38.22719439 130.02327416 -36.14391985 127.57195993 -33 126 C-30.62597499 125.92883618 -28.24999323 125.91590915 -25.875 125.9375 C-24.59367187 125.94652344 -23.31234375 125.95554687 -21.9921875 125.96484375 C-21.00476563 125.97644531 -20.01734375 125.98804688 -19 126 C-19.03480469 125.01 -19.06960937 124.02 -19.10546875 123 C-19.45800565 108.94303632 -19.45800565 108.94303632 -16 103 C-15.60941406 102.31421875 -15.21882813 101.6284375 -14.81640625 100.921875 C-10.45625214 94.25195087 -4.69652731 91.19764582 2.92578125 89.25390625 C22.75522661 85.52463313 46.13557038 88.37277862 63.32421875 99.1640625 C82.3574601 112.22336678 90.37894127 132.81261207 97 154 C97.67018308 156.10974602 98.35488035 158.21501387 99.0625 160.3125 C99.32160156 161.11300781 99.58070313 161.91351563 99.84765625 162.73828125 C101.38100169 165.74779654 103.54037004 167.7180773 106 170 C106.02578125 168.89527344 106.0515625 167.79054687 106.078125 166.65234375 C106.76795399 145.55737333 108.88842352 123.30587111 122 106 C123.11375 104.453125 123.11375 104.453125 124.25 102.875 C134.58482176 92.07041362 148.54483961 86.64029868 163 84 C163.98355469 83.81179687 164.96710938 83.62359375 165.98046875 83.4296875 C169.1563822 82.97774639 172.16911219 82.90187902 175.375 82.9375 C176.96441406 82.95103516 176.96441406 82.95103516 178.5859375 82.96484375 C179.78089844 82.98224609 179.78089844 82.98224609 181 83 C180.72308126 80.57142853 180.72308126 80.57142853 180 78 C177.11211359 75.76915523 177.11211359 75.76915523 174 74 C173.34 73.34 172.68 72.68 172 72 C171.51789063 72.42152344 171.03578125 72.84304687 170.5390625 73.27734375 C169.90742188 73.82519531 169.27578125 74.37304688 168.625 74.9375 C167.99851562 75.48277344 167.37203125 76.02804688 166.7265625 76.58984375 C163.01709796 79.61951954 159.54906995 79.38379932 154.90234375 79.359375 C149.52210107 78.69318075 145.74935326 75.74935326 142 72 C141.51789063 72.42152344 141.03578125 72.84304687 140.5390625 73.27734375 C139.90742188 73.82519531 139.27578125 74.37304688 138.625 74.9375 C137.99851562 75.48277344 137.37203125 76.02804688 136.7265625 76.58984375 C132.22345857 80.26771823 126.53999907 79.53589533 121 79 C117.30621121 77.12070395 114.8711139 74.90440218 112 72 C111.51789063 72.42152344 111.03578125 72.84304687 110.5390625 73.27734375 C109.90742188 73.82519531 109.27578125 74.37304688 108.625 74.9375 C107.99851562 75.48277344 107.37203125 76.02804688 106.7265625 76.58984375 C102.84172963 79.76275024 98.98044245 79.38271847 94.125 79.359375 C88.56308544 78.71975483 84.86761974 75.86761974 81 72 C80.67 72.66 80.34 73.32 80 74 C79.34 74 78.68 74 78 74 C78 74.66 78 75.32 78 76 C72.38132136 79.74578576 66.60506656 79.83356121 60 79 C56.30621121 77.12070395 53.8711139 74.90440218 51 72 C50.51789063 72.42152344 50.03578125 72.84304687 49.5390625 73.27734375 C48.90742188 73.82519531 48.27578125 74.37304688 47.625 74.9375 C46.99851563 75.48277344 46.37203125 76.02804688 45.7265625 76.58984375 C41.22345857 80.26771823 35.53999907 79.53589533 30 79 C26.37831612 77.1573889 23.70841738 75.00935265 21 72 C20.05125 72.804375 19.1025 73.60875 18.125 74.4375 C16.42067644 75.88246997 15.00519014 76.99740493 13 78 C12.34444881 80.52733235 12.34444881 80.52733235 12 83 C9.69 83 7.38 83 5 83 C5 81.68 5 80.36 5 79 C3.948125 78.896875 2.89625 78.79375 1.8125 78.6875 C-1.9427716 78.01031987 -4.00739327 77.30858234 -7 75 C-11.30647235 68.03418234 -8.8268679 58.18981504 -7.79296875 50.48828125 C-7.6669075 49.51698776 -7.54084625 48.54569427 -7.41096497 47.54496765 C-7.14419222 45.50165665 -6.87426517 43.4587552 -6.60131836 41.41625977 C-6.19104913 38.3391195 -5.79301236 35.26057828 -5.39648438 32.18164062 C-5.13354605 30.17959102 -4.86989644 28.17763468 -4.60546875 26.17578125 C-4.43183052 24.82967522 -4.43183052 24.82967522 -4.25468445 23.45637512 C-3.18278669 15.52164872 -1.58121127 7.90605636 0 0 Z M206 231 C204.87229087 234.38312738 204.85976902 235.57930706 206 239 C216.56 239 227.12 239 238 239 C236.92229503 232.53377019 235.71496289 230.1957872 231 226 C221.3240773 220.54629812 213.0104967 222.58740396 206 231 Z " fill="#000000" transform="translate(167,83)"/>
<path d="M0 0 C62.37 0 124.74 0 189 0 C190.99462952 6.64876507 192.72137603 12.9690489 193.97265625 19.7421875 C194.14123642 20.63181183 194.30981659 21.52143616 194.48350525 22.4380188 C195.01482607 25.24943294 195.53863968 28.06218737 196.0625 30.875 C196.41685698 32.75138915 196.77167139 34.62769198 197.12695312 36.50390625 C202.90372523 67.1080909 202.90372523 67.1080909 201 73 C198.80176185 75.70552388 197.10443333 77.44778333 194 79 C192.00039988 79.039992 189.99952758 79.04346799 188 79 C187.67 79.99 187.34 80.98 187 82 C185.02 82 183.04 82 181 82 C180.95875 81.4225 180.9175 80.845 180.875 80.25 C179.55970884 76.86782273 177.02383152 75.85132542 174 74 C173.34 73.34 172.68 72.68 172 72 C171.51789063 72.42152344 171.03578125 72.84304687 170.5390625 73.27734375 C169.90742188 73.82519531 169.27578125 74.37304688 168.625 74.9375 C167.99851562 75.48277344 167.37203125 76.02804688 166.7265625 76.58984375 C163.01709796 79.61951954 159.54906995 79.38379932 154.90234375 79.359375 C149.52210107 78.69318075 145.74935326 75.74935326 142 72 C141.51789063 72.42152344 141.03578125 72.84304687 140.5390625 73.27734375 C139.90742188 73.82519531 139.27578125 74.37304688 138.625 74.9375 C137.99851562 75.48277344 137.37203125 76.02804688 136.7265625 76.58984375 C132.22345857 80.26771823 126.53999907 79.53589533 121 79 C117.30621121 77.12070395 114.8711139 74.90440218 112 72 C111.51789063 72.42152344 111.03578125 72.84304687 110.5390625 73.27734375 C109.59160156 74.09912109 109.59160156 74.09912109 108.625 74.9375 C107.99851562 75.48277344 107.37203125 76.02804688 106.7265625 76.58984375 C102.84172963 79.76275024 98.98044245 79.38271847 94.125 79.359375 C88.56308544 78.71975483 84.86761974 75.86761974 81 72 C80.67 72.66 80.34 73.32 80 74 C79.34 74 78.68 74 78 74 C78 74.66 78 75.32 78 76 C72.38132136 79.74578576 66.60506656 79.83356121 60 79 C56.30621121 77.12070395 53.8711139 74.90440218 51 72 C50.27683594 72.63228516 50.27683594 72.63228516 49.5390625 73.27734375 C48.90742188 73.82519531 48.27578125 74.37304688 47.625 74.9375 C46.99851563 75.48277344 46.37203125 76.02804688 45.7265625 76.58984375 C41.22345857 80.26771823 35.53999907 79.53589533 30 79 C26.37831612 77.1573889 23.70841738 75.00935265 21 72 C20.05125 72.804375 19.1025 73.60875 18.125 74.4375 C16.42067644 75.88246997 15.00519014 76.99740493 13 78 C12.34444881 80.52733235 12.34444881 80.52733235 12 83 C9.69 83 7.38 83 5 83 C5 81.68 5 80.36 5 79 C3.948125 78.896875 2.89625 78.79375 1.8125 78.6875 C-1.9427716 78.01031987 -4.00739327 77.30858234 -7 75 C-11.30647235 68.03418234 -8.8268679 58.18981504 -7.79296875 50.48828125 C-7.6669075 49.51698776 -7.54084625 48.54569427 -7.41096497 47.54496765 C-7.14419222 45.50165665 -6.87426517 43.4587552 -6.60131836 41.41625977 C-6.19104913 38.3391195 -5.79301236 35.26057828 -5.39648438 32.18164062 C-5.13354605 30.17959102 -4.86989644 28.17763468 -4.60546875 26.17578125 C-4.48970993 25.27837723 -4.37395111 24.38097321 -4.25468445 23.45637512 C-3.18278669 15.52164872 -1.58121127 7.90605636 0 0 Z " fill="#0DA800" transform="translate(167,83)"/>
<path d="M0 0 C2.47923801 -0.02685095 4.9581884 -0.04676547 7.4375 -0.0625 C8.14455078 -0.07087891 8.85160156 -0.07925781 9.58007812 -0.08789062 C11.38693559 -0.09653588 13.19387603 -0.05220011 15 0 C16.75462654 1.75462654 16.41352403 4.27521859 16.63256836 6.66772461 C16.74616196 7.88507797 16.85975555 9.10243134 16.97679138 10.35667419 C17.09795398 11.70521768 17.21896709 13.0537746 17.33984375 14.40234375 C17.4678076 15.79597521 17.5961145 17.18957521 17.7247467 18.58314514 C17.99561537 21.52792274 18.26347706 24.47295331 18.52905273 27.41821289 C18.86205852 31.1106097 19.20040813 34.80248851 19.54083824 38.49420738 C21.1832231 56.31859439 22.69458666 74.14725152 24 92 C19.25438837 95.73700752 14.86339129 95.39043065 9.10546875 95.29296875 C8.15811356 95.28872391 7.21075836 95.28447906 6.23469543 95.28010559 C3.21867053 95.26335689 0.20332184 95.22571146 -2.8125 95.1875 C-4.86131845 95.17244825 -6.91014741 95.1587607 -8.95898438 95.14648438 C-13.9729155 95.11346579 -18.98634322 95.06170947 -24 95 C-24.94231489 89.75714093 -25.8842717 84.51421768 -26.82592773 79.27124023 C-27.14484498 77.49583287 -27.46385215 75.72044166 -27.78295898 73.94506836 C-29.87592268 62.30027982 -31.94963706 50.65237032 -34 39 C-48.85 38.505 -48.85 38.505 -64 38 C-63.690625 33.895625 -63.38125 29.79125 -63.0625 25.5625 C-62.91953491 23.64932983 -62.91953491 23.64932983 -62.77368164 21.69750977 C-62.69496826 20.66424561 -62.61625488 19.63098145 -62.53515625 18.56640625 C-62.456604 17.52427979 -62.37805176 16.48215332 -62.29711914 15.40844727 C-61.93597013 11.26547163 -61.45925013 7.13325115 -61 3 C-40.87 2.67 -20.74 2.34 0 2 C0 1.34 0 0.68 0 0 Z " fill="#0DA800" transform="translate(414,322)"/>
<path d="M0 0 C1.59618164 -0.0129007 1.59618164 -0.0129007 3.22460938 -0.02606201 C4.39710739 -0.03032196 5.56960541 -0.03458191 6.77763367 -0.03897095 C8.00859772 -0.04714844 9.23956177 -0.05532593 10.50782776 -0.06375122 C14.59605074 -0.08863765 18.68423671 -0.10527873 22.77250671 -0.11953735 C24.17963861 -0.12489698 25.58677044 -0.13027449 26.99390221 -0.13566971 C32.84697869 -0.15729842 38.70005242 -0.17603531 44.55315876 -0.1872921 C52.942639 -0.20353279 61.3316562 -0.2367128 69.72096187 -0.29369295 C75.61912079 -0.33238802 81.51715583 -0.35192422 87.41543835 -0.35721266 C90.93861047 -0.36086678 94.46128875 -0.37289298 97.9843235 -0.4053154 C101.91556527 -0.44097589 105.84622552 -0.43702621 109.77763367 -0.42959595 C110.94405899 -0.44600128 112.11048431 -0.46240662 113.31225586 -0.47930908 C121.1857207 -0.41824582 121.1857207 -0.41824582 125.19869995 2.50286865 C127.38831956 5.77679252 127.69627117 7.28965638 126.97172546 11.15390015 C125.7020874 13.802948 125.7020874 13.802948 122.97172546 16.15390015 C118.90059061 16.92476455 114.85560909 16.81530055 110.72343445 16.76913452 C108.8424707 16.77745804 108.8424707 16.77745804 106.92350769 16.78594971 C103.48714786 16.7957383 100.05229151 16.78314269 96.61609149 16.75966454 C93.02069571 16.73955699 89.4253332 16.74543496 85.82989502 16.74777222 C79.7931345 16.74771865 73.75668703 16.72796372 67.72001648 16.69589233 C60.73870679 16.65898285 53.75780695 16.65021904 46.77641243 16.65718985 C40.06157926 16.66349227 33.34688677 16.65274653 26.63208199 16.63322449 C23.77367716 16.62504541 20.91534419 16.62234185 18.05692863 16.62391663 C14.06800675 16.62495775 10.07945748 16.60080092 6.09062195 16.57382202 C4.30685905 16.57821793 4.30685905 16.57821793 2.48706055 16.58270264 C1.40329132 16.57135284 0.31952209 16.56000305 -0.79708862 16.54830933 C-1.74041833 16.54458061 -2.68374804 16.5408519 -3.65566349 16.53701019 C-6.48797211 16.0796719 -7.35494377 15.45220396 -9.02827454 13.15390015 C-10.05565125 9.19116139 -10.43399922 7.04263041 -8.71577454 3.27890015 C-6.0333048 -0.0990247 -4.13869258 0.02484587 0 0 Z " fill="#0DA801" transform="translate(26.028274536132813,298.8460998535156)"/>
<path d="M0 0 C2.47923801 -0.02685095 4.9581884 -0.04676547 7.4375 -0.0625 C8.14455078 -0.07087891 8.85160156 -0.07925781 9.58007812 -0.08789062 C11.38693559 -0.09653588 13.19387603 -0.05220011 15 0 C16.75462654 1.75462654 16.41352403 4.27521859 16.63256836 6.66772461 C16.74616196 7.88507797 16.85975555 9.10243134 16.97679138 10.35667419 C17.09795398 11.70521768 17.21896709 13.0537746 17.33984375 14.40234375 C17.4678076 15.79597521 17.5961145 17.18957521 17.7247467 18.58314514 C17.99561537 21.52792274 18.26347706 24.47295331 18.52905273 27.41821289 C18.86205852 31.1106097 19.20040813 34.80248851 19.54083824 38.49420738 C21.1832231 56.31859439 22.69458666 74.14725152 24 92 C19 95 19 95 4 95 C4 64.97 4 34.94 4 4 C-17.45 4 -38.9 4 -61 4 C-61 3.67 -61 3.34 -61 3 C-40.87 2.67 -20.74 2.34 0 2 C0 1.34 0 0.68 0 0 Z " fill="#010B01" transform="translate(414,322)"/>
<path d="M0 0 C1.28483276 -0.01253311 2.56966553 -0.02506622 3.89343262 -0.03797913 C5.28768937 -0.02571042 6.68193641 -0.01229034 8.07617188 0.00219727 C9.51436543 0.00136802 10.95255889 -0.00109346 12.39074707 -0.00511169 C15.40027503 -0.00796579 18.40905714 0.00669168 21.41845703 0.03417969 C25.26888876 0.06826331 29.11798741 0.06224142 32.96848297 0.04351711 C35.9369002 0.03292948 38.90500923 0.04190063 41.87339783 0.05690193 C43.2927102 0.06207137 44.71205493 0.06161698 46.13136292 0.05535698 C48.1175657 0.04988459 50.10378428 0.07317688 52.08984375 0.09765625 C53.21837769 0.10385483 54.34691162 0.11005341 55.50964355 0.11643982 C59.24930024 0.75053835 60.92615713 1.91775563 63.54492188 4.63110352 C64.39069302 9.95946172 64.39069302 9.95946172 63.54492188 12.63110352 C60.99715709 15.71820458 59.48501398 17.43445545 55.50964355 18.26602173 C53.81684265 18.27198868 53.81684265 18.27198868 52.08984375 18.27807617 C50.80501099 18.29383698 49.52017822 18.30959778 48.19641113 18.32583618 C46.80215596 18.3168861 45.40790864 18.30663103 44.01367188 18.29516602 C42.57547598 18.29853683 41.13728286 18.30339166 39.69909668 18.30966187 C36.68958326 18.31702095 33.68081346 18.30636042 30.67138672 18.28295898 C26.82077597 18.25446986 22.97190764 18.27087929 19.12136078 18.3008213 C16.15292316 18.31892153 13.18489616 18.3131242 10.21644592 18.30018234 C8.79712211 18.29685576 7.37776056 18.30090916 5.95848083 18.31258011 C3.97232818 18.32532973 1.98604416 18.3024386 0 18.27807617 C-1.12853394 18.27409821 -2.25706787 18.27012024 -3.4197998 18.26602173 C-7.42646637 17.42790894 -8.93451632 15.79217905 -11.45507812 12.63110352 C-12.08007812 9.13110352 -12.08007812 9.13110352 -11.45507812 5.63110352 C-7.89601858 1.16597902 -5.67039306 0.00483243 0 0 Z " fill="#12A407" transform="translate(89.455078125,250.368896484375)"/>
<path d="M0 0 C1.25447433 -0.00285004 2.50894867 -0.00570007 3.80143738 -0.00863647 C5.16101187 0.01358087 6.52057512 0.03649574 7.88012695 0.06005859 C9.28065666 0.0668523 10.68119783 0.07157192 12.08174133 0.0743103 C15.75895188 0.08769334 19.43519062 0.13195443 23.11206055 0.18188477 C26.11907073 0.2173494 29.12598411 0.23037494 32.13316631 0.24230385 C35.71554758 0.25707636 39.2978255 0.2822978 42.88012695 0.31005859 C43.90715508 0.31742476 43.90715508 0.31742476 44.95493126 0.32493973 C46.88667659 0.3411879 48.8183471 0.36570327 50.75 0.390625 C51.84966599 0.40348541 52.94933197 0.41634583 54.08232117 0.42959595 C56.6809082 0.58349609 56.6809082 0.58349609 58.6809082 1.58349609 C58.22795956 3.33489752 57.76832072 5.08456954 57.3059082 6.83349609 C56.92305664 8.29529297 56.92305664 8.29529297 56.5324707 9.78662109 C55.77867532 12.26238941 55.01142342 14.36935627 53.6809082 16.58349609 C51.07591764 17.88599138 49.12629358 17.73925177 46.20898438 17.77636719 C44.49161324 17.80046158 44.49161324 17.80046158 42.73954773 17.82504272 C37.5011877 17.86940557 32.26291533 17.9109971 27.02441406 17.93359375 C24.25877777 17.94692878 21.49388012 17.97477163 18.72851562 18.015625 C14.74782288 18.07443085 10.76748925 18.09225491 6.78637695 18.10693359 C4.93147896 18.14093765 4.93147896 18.14093765 3.03910828 18.17562866 C-6.50882933 18.15205567 -6.50882933 18.15205567 -9.59912109 15.26953125 C-11.88836273 11.69447995 -12.06357102 9.75257975 -11.3190918 5.58349609 C-7.79079167 1.16961189 -5.61997732 -0.04123934 0 0 Z " fill="#0DA801" transform="translate(89.319091796875,348.41650390625)"/>
<path d="M0 0 C1.32 0 2.64 0 4 0 C5.61204878 15.62555112 6.99986135 31.2650759 8.32543945 46.91723633 C8.58117607 49.93064632 8.83930572 52.94384441 9.09765625 55.95703125 C9.17371597 56.86435501 9.2497757 57.77167877 9.32814026 58.70649719 C9.74019509 63.50127854 10.30728021 68.23595314 11 73 C11.06400078 75.31170807 11.08633991 77.62502904 11.0625 79.9375 C11.05347656 81.08089844 11.04445313 82.22429687 11.03515625 83.40234375 C11.02355469 84.25957031 11.01195312 85.11679687 11 86 C7.37 87.65 3.74 89.3 0 91 C0 60.97 0 30.94 0 0 Z " fill="#13A108" transform="translate(422,326)"/>
<path d="M0 0 C62.37 0 124.74 0 189 0 C190.80939016 6.03130054 192.42927604 11.52350395 193.60546875 17.6171875 C193.79886589 18.61384933 193.79886589 18.61384933 193.99617004 19.63064575 C194.26319193 21.01305269 194.52773169 22.39594136 194.78979492 23.77929688 C195.19097115 25.89329119 195.60177267 28.00525907 196.01367188 30.1171875 C198 40.44865705 198 40.44865705 198 45 C197.34 45 196.68 45 196 45 C195.32019419 41.83601018 194.65861314 38.66846323 194 35.5 C193.80921875 34.613125 193.6184375 33.72625 193.421875 32.8125 C192.31211085 27.422217 191.7943025 22.50240809 192 17 C190.68 16.67 189.36 16.34 188 16 C188.33 15.01 188.66 14.02 189 13 C189.06802967 11.27204648 189.08495645 9.54164635 189.0625 7.8125 C189.05347656 6.91144531 189.04445313 6.01039062 189.03515625 5.08203125 C189.02355469 4.39496094 189.01195312 3.70789063 189 3 C164.80042605 2.97666214 140.60085379 2.95901645 116.40127087 2.94818783 C105.16554069 2.94302676 93.92981749 2.93598765 82.6940918 2.92456055 C72.9035262 2.91460795 63.11296566 2.90814519 53.32239515 2.90591151 C48.13613434 2.90460538 42.949888 2.9015257 37.76363182 2.89426994 C32.88574632 2.88750066 28.00788129 2.88538491 23.12999153 2.88689232 C21.33647424 2.8866164 19.54295629 2.88461665 17.74944305 2.88079453 C15.30695087 2.87584314 12.86453672 2.87700711 10.42204285 2.87974548 C9.70706499 2.87683264 8.99208713 2.8739198 8.25544327 2.87091869 C5.21909827 2.88016422 2.90632115 3.03122628 0 4 C0.03996094 5.16660156 0.07992187 6.33320312 0.12109375 7.53515625 C0.11985101 13.87935709 -0.78548592 20.1148336 -1.65405273 26.38647461 C-1.94013863 28.45659312 -2.21581359 30.52791542 -2.49023438 32.59960938 C-3.86446344 42.72892688 -3.86446344 42.72892688 -5 45 C-5.66 44.67 -6.32 44.34 -7 44 C-6.81824219 42.79988281 -6.63648438 41.59976563 -6.44921875 40.36328125 C-6.19514036 38.67971347 -5.94124909 36.99611744 -5.6875 35.3125 C-5.55359863 34.42506104 -5.41969727 33.53762207 -5.28173828 32.62329102 C-4.55547094 27.78560476 -3.84660097 22.94617544 -3.16796875 18.1015625 C-2.96844604 16.67976685 -2.96844604 16.67976685 -2.76489258 15.22924805 C-2.50837588 13.3925114 -2.25424042 11.55544036 -2.00268555 9.71801758 C-1.82733276 8.46347778 -1.82733276 8.46347778 -1.6484375 7.18359375 C-1.54708496 6.44681396 -1.44573242 5.71003418 -1.34130859 4.95092773 C-1 3 -1 3 0 0 Z " fill="#228E15" transform="translate(167,83)"/>
<path d="M0 0 C1.1653125 -0.00257813 2.330625 -0.00515625 3.53125 -0.0078125 C6.5 0.125 6.5 0.125 8.5 1.125 C9.00244141 3.07446289 9.00244141 3.07446289 9.3515625 5.59765625 C9.48046875 6.49677734 9.609375 7.39589844 9.7421875 8.32226562 C9.86851562 9.26779297 9.99484375 10.21332031 10.125 11.1875 C10.2590625 12.13689453 10.393125 13.08628906 10.53125 14.06445312 C10.86225648 16.41696345 11.18478072 18.77033094 11.5 21.125 C8.43601549 21.26030844 5.37802874 21.3592407 2.3125 21.4375 C1.44818359 21.47939453 0.58386719 21.52128906 -0.30664062 21.56445312 C-4.89036459 21.65226393 -6.83185206 21.64942341 -10.55078125 18.73046875 C-13.6145519 14.63520819 -14.01575739 12.28257388 -13.5 7.125 C-9.92652538 1.12476277 -6.72579695 -0.01488008 0 0 Z " fill="#0FA504" transform="translate(140.5,208.875)"/>
<path d="M0 0 C21.45 0 42.9 0 65 0 C65 30.03 65 60.06 65 91 C64.34 91 63.68 91 63 91 C63.33 61.3 63.66 31.6 64 1 C43.54 1 23.08 1 2 1 C2 3.97 2 6.94 2 10 C1.34 10 0.68 10 0 10 C0.01160156 10.90621094 0.02320313 11.81242187 0.03515625 12.74609375 C0.04417969 13.96425781 0.05320312 15.18242187 0.0625 16.4375 C0.07410156 17.63246094 0.08570313 18.82742188 0.09765625 20.05859375 C-0.00957771 24.38655648 -0.52190979 28.69718809 -1 33 C8.9 33 18.8 33 29 33 C32.42857143 49 32.42857143 49 32 56 C29.56229432 52.05727603 29.10566506 47.74286712 28.375 43.25 C27.92125 40.5275 27.4675 37.805 27 35 C12.15 34.505 12.15 34.505 -3 34 C-2.690625 29.875 -2.38125 25.75 -2.0625 21.5 C-1.96718994 20.21544922 -1.87187988 18.93089844 -1.77368164 17.60742188 C-1.65561157 16.0537793 -1.65561157 16.0537793 -1.53515625 14.46875 C-1.456604 13.42138672 -1.37805176 12.37402344 -1.29711914 11.29492188 C-0.95676268 7.52051691 -0.47005688 3.76045501 0 0 Z " fill="#1C8F13" transform="translate(353,326)"/>
<path d="M0 0 C0.99 0 1.98 0 3 0 C3 30.03 3 60.06 3 91 C2.01 91 1.02 91 0 91 C0 60.97 0 30.94 0 0 Z " fill="#000B00" transform="translate(418,326)"/>
<path d="M0 0 C3.96 0 7.92 0 12 0 C14.63537118 7.90611355 14.17981101 15.76865163 14 24 C13.67 24 13.34 24 13 24 C12.67 17.4 12.34 10.8 12 4 C10.68 4 9.36 4 8 4 C8 34.03 8 64.06 8 95 C7.67 95 7.34 95 7 95 C6.67 66.95 6.34 38.9 6 10 C5.67 10 5.34 10 5 10 C5 8.02 5 6.04 5 4 C-16.78 4 -38.56 4 -61 4 C-61 3.67 -61 3.34 -61 3 C-40.87 2.67 -20.74 2.34 0 2 C0 1.34 0 0.68 0 0 Z " fill="#0A4006" transform="translate(414,322)"/>
<path d="M0 0 C14.90767613 -0.11683801 29.81531675 -0.20499033 44.72335339 -0.25906086 C51.64555867 -0.28483496 58.56747935 -0.31996962 65.48950195 -0.37719727 C72.16793551 -0.4323847 78.84601212 -0.46141066 85.524683 -0.47438622 C88.07444225 -0.48363471 90.62418506 -0.5016946 93.17381859 -0.52865028 C96.74148091 -0.56487359 100.30791621 -0.56994787 103.87573242 -0.56762695 C104.93309097 -0.58560333 105.99044952 -0.60357971 107.07984924 -0.62210083 C114.23060324 -0.57166535 114.23060324 -0.57166535 118.16011047 2.34797668 C120 5 120 5 120.5625 8 C119.88398909 11.61872485 118.49661422 13.3473474 116 16 C114.35 15.67 112.7 15.34 111 15 C111 14.34 111 13.68 111 13 C111.99 12.34 112.98 11.68 114 11 C114.57748803 9.03638136 114.57748803 9.03638136 114.6875 6.875 C114.790625 5.59625 114.89375 4.3175 115 3 C114.05125 3.020625 113.1025 3.04125 112.125 3.0625 C109 3 109 3 107 2 C105.56855575 1.89646556 104.13249259 1.85354502 102.69735718 1.84178162 C101.79429337 1.8319928 100.89122955 1.82220398 99.96080017 1.81211853 C98.9674617 1.80636307 97.97412323 1.8006076 96.95068359 1.79467773 C95.90675949 1.78477814 94.86283539 1.77487854 93.78727722 1.76467896 C90.324354 1.73300079 86.86141704 1.70828156 83.3984375 1.68359375 C81.00232581 1.66302968 78.60621779 1.64203336 76.21011353 1.62062073 C69.8939511 1.56534359 63.57775562 1.51595922 57.26153564 1.46777344 C50.82016041 1.41759956 44.37883333 1.36189205 37.9375 1.30664062 C25.29170806 1.19899006 12.64587504 1.09737266 0 1 C0 0.67 0 0.34 0 0 Z " fill="#16A10C" transform="translate(33,299)"/>
<path d="M0 0 C1.25447433 -0.00285004 2.50894867 -0.00570007 3.80143738 -0.00863647 C5.16101187 0.01358087 6.52057512 0.03649574 7.88012695 0.06005859 C9.28065666 0.0668523 10.68119783 0.07157192 12.08174133 0.0743103 C15.75895188 0.08769334 19.43519062 0.13195443 23.11206055 0.18188477 C26.11907073 0.2173494 29.12598411 0.23037494 32.13316631 0.24230385 C35.71554758 0.25707636 39.2978255 0.2822978 42.88012695 0.31005859 C43.90715508 0.31742476 43.90715508 0.31742476 44.95493126 0.32493973 C46.88667659 0.3411879 48.8183471 0.36570327 50.75 0.390625 C51.84966599 0.40348541 52.94933197 0.41634583 54.08232117 0.42959595 C56.6809082 0.58349609 56.6809082 0.58349609 58.6809082 1.58349609 C58.23096063 3.37728707 57.77066677 5.16848538 57.3059082 6.95849609 C56.92305664 8.45509766 56.92305664 8.45509766 56.5324707 9.98193359 C55.6809082 12.58349609 55.6809082 12.58349609 53.6809082 14.58349609 C53.6809082 12.27349609 53.6809082 9.96349609 53.6809082 7.58349609 C54.3409082 7.58349609 55.0009082 7.58349609 55.6809082 7.58349609 C56.0109082 5.93349609 56.3409082 4.28349609 56.6809082 2.58349609 C35.5609082 2.91349609 14.4409082 3.24349609 -7.3190918 3.58349609 C-9.58519163 8.11569576 -9.24645156 9.76122535 -8.3190918 14.58349609 C-7.6590918 14.58349609 -6.9990918 14.58349609 -6.3190918 14.58349609 C-6.3190918 15.24349609 -6.3190918 15.90349609 -6.3190918 16.58349609 C-10.1940918 14.83349609 -10.1940918 14.83349609 -11.3190918 12.58349609 C-11.80471218 8.29384935 -11.91345946 6.33577749 -9.19059753 2.88949585 C-5.78441664 0.15411831 -4.30974313 -0.03162486 0 0 Z " fill="#229218" transform="translate(89.319091796875,348.41650390625)"/>
<path d="M0 0 C3.7815393 6.71741791 4.74411291 15.51745472 3.6171875 23.08984375 C2.58655552 26.27958448 0.58212341 27.98468417 -2 30 C-4.70879335 31.35439668 -7.00933268 31.06501451 -10 31 C-10.495 32.485 -10.495 32.485 -11 34 C-12.98 34 -14.96 34 -17 34 C-17.0825 33.401875 -17.165 32.80375 -17.25 32.1875 C-18.20455872 29.4033704 -19.57132271 28.56688858 -22 27 C-21 26 -21 26 -18.4375 25.9375 C-17.2309375 25.9684375 -17.2309375 25.9684375 -16 26 C-16 27.65 -16 29.3 -16 31 C-14.68 31 -13.36 31 -12 31 C-11.67 30.34 -11.34 29.68 -11 29 C-8.69 29 -6.38 29 -4 29 C-4 28.01 -4 27.02 -4 26 C-3.34 26 -2.68 26 -2 26 C-2 25.34 -2 24.68 -2 24 C-0.68 24 0.64 24 2 24 C1.88610125 22.20759337 1.75852313 20.41605165 1.625 18.625 C1.55539062 17.62726563 1.48578125 16.62953125 1.4140625 15.6015625 C1.23636036 12.84491121 1.23636036 12.84491121 -1 11 C-1 7.25838897 -0.48661829 3.71046443 0 0 Z " fill="#21891A" transform="translate(365,131)"/>
<path d="M0 0 C2.64 0 5.28 0 8 0 C10.6034466 7.79515594 12.26319049 15.72079651 13.78979492 23.77929688 C14.19097115 25.89329119 14.60177267 28.00525907 15.01367188 30.1171875 C17 40.44865705 17 40.44865705 17 45 C16.34 45 15.68 45 15 45 C14.32019419 41.83601018 13.65861314 38.66846323 13 35.5 C12.71382813 34.1696875 12.71382813 34.1696875 12.421875 32.8125 C11.31211085 27.422217 10.7943025 22.50240809 11 17 C9.68 16.67 8.36 16.34 7 16 C7.33 15.01 7.66 14.02 8 13 C8.47179489 7.09132031 8.47179489 7.09132031 6 2 C2.94091587 1.18415432 2.94091587 1.18415432 0 1 C0 0.67 0 0.34 0 0 Z " fill="#1E8C16" transform="translate(348,83)"/>
<path d="M0 0 C0.33 0 0.66 0 1 0 C1.22786458 1.98567708 1.45572917 3.97135417 1.68359375 5.95703125 C1.97170735 8.19396393 1.97170735 8.19396393 3 11 C5.01508358 11.73323796 5.01508358 11.73323796 7 12 C7 12.66 7 13.32 7 14 C11.455 14.99 11.455 14.99 16 16 C16 16.99 16 17.98 16 19 C17.32 18.67 18.64 18.34 20 18 C20 16.68 20 15.36 20 14 C21.32 14.33 22.64 14.66 24 15 C23.01 15.495 23.01 15.495 22 16 C21.34444881 18.52733235 21.34444881 18.52733235 21 21 C18.69 21 16.38 21 14 21 C14 19.68 14 18.36 14 17 C12.948125 16.896875 11.89625 16.79375 10.8125 16.6875 C7.0572284 16.01031987 4.99260673 15.30858234 2 13 C0.12314214 9.99313083 -0.22838985 7.76525493 -0.125 4.25 C-0.10695312 3.45078125 -0.08890625 2.6515625 -0.0703125 1.828125 C-0.04710937 1.22484375 -0.02390625 0.6215625 0 0 Z " fill="#299620" transform="translate(158,145)"/>
<path d="M0 0 C0.99 0.33 1.98 0.66 3 1 C3.33 1.99 3.66 2.98 4 4 C8.06070735 7.28068447 11.79833003 7.3746317 16.8125 7.1875 C17.50537109 7.17396484 18.19824219 7.16042969 18.91210938 7.14648438 C20.60841265 7.11138845 22.30431136 7.05758943 24 7 C24.309375 6.38125 24.61875 5.7625 24.9375 5.125 C25.625 3.75 26.3125 2.375 27 1 C27.66 1 28.32 1 29 1 C28.66032174 4.17033042 28.00130809 4.99882607 25.5625 7.1875 C20.3178834 10.89710687 15.29144556 10.69904951 9 10 C5.83800289 8.82582234 3.37421295 7.40673641 1 5 C0 2.1875 0 2.1875 0 0 Z " fill="#259C1F" transform="translate(249,152)"/>
<path d="M0 0 C0 0.66 0 1.32 0 2 C-2.63715096 3.31857548 -4.5983264 3.11991704 -7.55126953 3.11352539 C-8.71232208 3.11344986 -9.87337463 3.11337433 -11.0696106 3.11329651 C-12.32796722 3.10813522 -13.58632385 3.10297394 -14.8828125 3.09765625 C-16.16735321 3.0962413 -17.45189392 3.09482635 -18.77536011 3.09336853 C-22.19156842 3.08954911 -25.60773426 3.07972373 -29.02392578 3.06866455 C-32.50943426 3.05843807 -35.9949496 3.05386826 -39.48046875 3.04882812 C-46.32032995 3.03810096 -53.16016294 3.02103142 -60 3 C-60 2.67 -60 2.34 -60 2 C-59.03280281 1.9845388 -59.03280281 1.9845388 -58.04606628 1.96876526 C-51.34660609 1.86074573 -44.64728163 1.74614392 -37.94799805 1.62768555 C-35.44639928 1.58432212 -32.94477064 1.54264809 -30.44311523 1.50268555 C-26.85130808 1.44501729 -23.25965148 1.38131267 -19.66796875 1.31640625 C-18.54601608 1.29969376 -17.42406342 1.28298126 -16.26811218 1.26576233 C-15.22725967 1.24581711 -14.18640717 1.22587189 -13.11401367 1.20532227 C-11.7383448 1.18200584 -11.7383448 1.18200584 -10.33488464 1.15821838 C-6.72766973 0.9137833 -3.7038935 -0.10010523 0 0 Z " fill="#1F8F15" transform="translate(143,363)"/>
<path d="M0 0 C1.70736328 0.03673828 1.70736328 0.03673828 3.44921875 0.07421875 C6.3125 0.3125 6.3125 0.3125 8.3125 1.3125 C8.81494141 3.26196289 8.81494141 3.26196289 9.1640625 5.78515625 C9.29296875 6.68427734 9.421875 7.58339844 9.5546875 8.50976562 C9.68101562 9.45529297 9.80734375 10.40082031 9.9375 11.375 C10.0715625 12.32439453 10.205625 13.27378906 10.34375 14.25195312 C10.67475648 16.60446345 10.99728072 18.95783094 11.3125 21.3125 C10.6525 21.3125 9.9925 21.3125 9.3125 21.3125 C8.97475668 19.08399723 8.6424813 16.85466533 8.3125 14.625 C8.126875 13.38363281 7.94125 12.14226562 7.75 10.86328125 C7.39149589 7.95363629 7.22307744 5.23549978 7.3125 2.3125 C5.20771396 2.42659682 3.10365423 2.55415361 1 2.6875 C-0.75763672 2.79191406 -0.75763672 2.79191406 -2.55078125 2.8984375 C-5.84449887 3.09863747 -5.84449887 3.09863747 -8.6875 5.3125 C-9.6775 4.9825 -10.6675 4.6525 -11.6875 4.3125 C-7.76207723 0.57856127 -5.38376785 -0.17802653 0 0 Z " fill="#229419" transform="translate(140.6875,208.6875)"/>
<path d="M0 0 C0.33 0 0.66 0 1 0 C1.02694851 1.95825873 1.04637218 3.91662226 1.0625 5.875 C1.07410156 6.96554687 1.08570313 8.05609375 1.09765625 9.1796875 C1 12 1 12 0 14 C9.9 14 19.8 14 30 14 C30.33 15.65 30.66 17.3 31 19 C30.34 19 29.68 19 29 19 C29 18.01 29 17.02 29 16 C14.15 15.505 14.15 15.505 -1 15 C-1 2 -1 2 0 0 Z " fill="#002500" transform="translate(350,346)"/>
<path d="M0 0 C0.33 1.32 0.66 2.64 1 4 C-5.05611802 9.13453485 -7.89784313 10.35317676 -16.01171875 10.28515625 C-21.07100791 9.80237441 -23.71806175 7.5383259 -26.875 3.75 C-27.24625 3.1725 -27.6175 2.595 -28 2 C-25.79358341 3.06234873 -23.83300043 4.12101418 -21.84375 5.5625 C-18.2395308 7.384413 -15.12111375 7.33430472 -11.1875 7.1875 C-10.49462891 7.17396484 -9.80175781 7.16042969 -9.08789062 7.14648438 C-7.39158735 7.11138845 -5.69568864 7.05758943 -4 7 C-4 6.01 -4 5.02 -4 4 C-3.01 4 -2.02 4 -1 4 C-0.67 2.68 -0.34 1.36 0 0 Z " fill="#2A9723" transform="translate(307,152)"/>
<path d="M0 0 C0.33 0.99 0.66 1.98 1 3 C-4.7084061 7.8397356 -7.45405611 9.39958392 -15.09375 9.359375 C-19.49771762 8.81479836 -22.69964981 6.91207369 -26 4 C-26.33 3.34 -26.66 2.68 -27 2 C-23.59687262 3.05875074 -20.98646769 4.00902154 -18 6 C-15.42679652 6.31769549 -15.42679652 6.31769549 -12.625 6.25 C-11.68914062 6.25515625 -10.75328125 6.2603125 -9.7890625 6.265625 C-6.81739674 5.98260921 -4.66364747 5.33415618 -2 4 C-0.65589738 1.98264795 -0.65589738 1.98264795 0 0 Z " fill="#27921E" transform="translate(337,153)"/>
<path d="M0 0 C0.99 0.495 0.99 0.495 2 1 C2 1.66 2 2.32 2 3 C2.66 3 3.32 3 4 3 C4 3.66 4 4.32 4 5 C11.28555229 6.53380048 18.71444771 6.53380048 26 5 C20.10083458 9.52269349 15.39540203 9.72409289 8 9 C4.68195681 7.66899789 2.51738292 5.51738292 0 3 C0 2.01 0 1.02 0 0 Z " fill="#289521" transform="translate(219,153)"/>
<path d="M0 0 C0.66 0 1.32 0 2 0 C2 0.66 2 1.32 2 2 C2.66 2 3.32 2 4 2 C4 2.66 4 3.32 4 4 C6.97 4.495 6.97 4.495 10 5 C10 5.66 10 6.32 10 7 C12.97 7 15.94 7 19 7 C19 6.34 19 5.68 19 5 C20.32 5 21.64 5 23 5 C23 4.34 23 3.68 23 3 C23.66 3 24.32 3 25 3 C25 2.34 25 1.68 25 1 C26.32 0.67 27.64 0.34 29 0 C23.88649835 6.53391877 23.88649835 6.53391877 20 8 C14.76858869 8.62660358 8.9936259 9.15378955 4.375 6.25 C2.21184255 4.20069294 0.99390147 2.78292412 0 0 Z " fill="#27901C" transform="translate(189,154)"/>
<path d="M0 0 C3.80336481 6.75618813 4.7460372 15.609804 3.6171875 23.22265625 C3 25 3 25 0.5625 27 C-0.283125 27.33 -1.12875 27.66 -2 28 C-2.66 28.33 -3.32 28.66 -4 29 C-4 28.01 -4 27.02 -4 26 C-3.34 26 -2.68 26 -2 26 C-2 25.34 -2 24.68 -2 24 C-0.68 24 0.64 24 2 24 C1.88610125 22.20759337 1.75852313 20.41605165 1.625 18.625 C1.55539062 17.62726563 1.48578125 16.62953125 1.4140625 15.6015625 C1.23636036 12.84491121 1.23636036 12.84491121 -1 11 C-1 7.25838897 -0.48661829 3.71046443 0 0 Z " fill="#1B9811" transform="translate(365,131)"/>
<path d="M0 0 C4.2498709 -0.08708752 8.49951239 -0.14042181 12.75 -0.1875 C13.9565625 -0.21263672 15.163125 -0.23777344 16.40625 -0.26367188 C17.56640625 -0.27333984 18.7265625 -0.28300781 19.921875 -0.29296875 C20.99018555 -0.3086792 22.05849609 -0.32438965 23.15917969 -0.34057617 C26.33115522 0.03970106 27.67217242 0.87106908 30 3 C29.67 3.66 29.34 4.32 29 5 C28.29875 4.690625 27.5975 4.38125 26.875 4.0625 C20.97154418 1.88078807 14.84940159 1.7402819 8.625 1.4375 C7.79355469 1.39431641 6.96210938 1.35113281 6.10546875 1.30664062 C4.07046772 1.20138195 2.03525297 1.10026928 0 1 C0 0.67 0 0.34 0 0 Z " fill="#1C9710" transform="translate(122,299)"/>
<path d="M0 0 C0.99 0 1.98 0 3 0 C2.60856977 2.27029534 2.11258722 3.83408198 0.8125 5.75 C-1.78687216 7.54267046 -3.92339216 7.20510719 -7 7 C-7.33 8.32 -7.66 9.64 -8 11 C-8.36213469 6.53367217 -8.36213469 6.53367217 -6.8125 4.25 C-4.58183452 2.71161002 -2.6635969 2.35994553 0 2 C0 1.34 0 0.68 0 0 Z " fill="#18A40C" transform="translate(185,152)"/>
<path d="M0 0 C0.66 0.33 1.32 0.66 2 1 C1.608125 1.86625 1.21625 2.7325 0.8125 3.625 C-0.21296696 7.88463199 0.82547015 9.32002641 3 13 C3 13.66 3 14.32 3 15 C0.66971908 14.06788763 -0.75891532 13.30996602 -2.3125 11.3125 C-3.30764948 7.96517903 -2.749146 5.371157 -2 2 C-1.34 1.34 -0.68 0.68 0 0 Z " fill="#1A9013" transform="translate(19,300)"/>
<path d="M0 0 C0.33 0 0.66 0 1 0 C1 2.97 1 5.94 1 9 C0.34 9 -0.32 9 -1 9 C-1 13.62 -1 18.24 -1 23 C-3 21 -3 21 -3.046875 17.98828125 C-2.05987366 5.76764625 -2.05987366 5.76764625 0 0 Z " fill="#18940D" transform="translate(354,327)"/>
<path d="M0 0 C1.32 0.33 2.64 0.66 4 1 C3.01 1.495 3.01 1.495 2 2 C1.34444881 4.52733235 1.34444881 4.52733235 1 7 C-1.31 7 -3.62 7 -6 7 C-6 5.35 -6 3.7 -6 2 C-5.34 2 -4.68 2 -4 2 C-4 2.99 -4 3.98 -4 5 C-2.68 4.67 -1.36 4.34 0 4 C0 2.68 0 1.36 0 0 Z " fill="#25891C" transform="translate(178,159)"/>
<path d="M0 0 C3.13107836 3.38583802 3.33550778 5.71109462 3.1875 10.25 C3.14689453 11.86648437 3.14689453 11.86648437 3.10546875 13.515625 C3.07066406 14.33546875 3.03585938 15.1553125 3 16 C2.67 16 2.34 16 2 16 C1.92652344 14.82630859 1.92652344 14.82630859 1.8515625 13.62890625 C1.77679688 12.61699219 1.70203125 11.60507813 1.625 10.5625 C1.55539063 9.55316406 1.48578125 8.54382813 1.4140625 7.50390625 C1.27742187 6.67761719 1.14078125 5.85132813 1 5 C0.34 4.67 -0.32 4.34 -1 4 C-0.67 2.68 -0.34 1.36 0 0 Z " fill="#031D02" transform="translate(148,205)"/>
<path d="M0 0 C0.66 0 1.32 0 2 0 C1.55005243 1.79379098 1.08975857 3.58498928 0.625 5.375 C0.36976563 6.37273437 0.11453125 7.37046875 -0.1484375 8.3984375 C-1 11 -1 11 -3 13 C-3 10.69 -3 8.38 -3 6 C-2.34 6 -1.68 6 -1 6 C-0.67 4.02 -0.34 2.04 0 0 Z " fill="#1F9119" transform="translate(146,350)"/>
<path d="M0 0 C0.66 0.66 1.32 1.32 2 2 C1.57674417 3.79508501 1.13589265 5.5860283 0.6875 7.375 C0.44386719 8.37273437 0.20023438 9.37046875 -0.05078125 10.3984375 C-1 13 -1 13 -4 15 C-3.52343588 13.20763933 -3.04366502 11.41613103 -2.5625 9.625 C-2.29566406 8.62726563 -2.02882812 7.62953125 -1.75390625 6.6015625 C-1 4 -1 4 0 2 C-0.66 1.67 -1.32 1.34 -2 1 C-1.34 0.67 -0.68 0.34 0 0 Z " fill="#011D00" transform="translate(148,348)"/>
<path d="M0 0 C0.66 0.33 1.32 0.66 2 1 C2.29296875 6.95703125 2.29296875 6.95703125 2 9 C1.01 9.99 0.02 10.98 -1 12 C-0.67 8.04 -0.34 4.08 0 0 Z " fill="#248C1A" transform="translate(151,254)"/>
<path d="M0 0 C0.66 0 1.32 0 2 0 C1.44299928 3.23060419 0.70784878 5.0658223 -2 7 C-4.6875 7.1875 -4.6875 7.1875 -7 7 C-6.38125 6.9175 -5.7625 6.835 -5.125 6.75 C-2.83911206 6.19416524 -2.83911206 6.19416524 -1.8125 4.0625 C-1.544375 3.381875 -1.27625 2.70125 -1 2 C-0.67 1.34 -0.34 0.68 0 0 Z " fill="#1B9A14" transform="translate(276,153)"/>
<path d="M0 0 C1.65 0 3.3 0 5 0 C5 1.65 5 3.3 5 5 C3.02 4.01 1.04 3.02 -1 2 C-0.67 1.34 -0.34 0.68 0 0 Z " fill="#25961D" transform="translate(344,157)"/>
<path d="M0 0 C0.33 1.32 0.66 2.64 1 4 C-0.65 5.32 -2.3 6.64 -4 8 C-4 6.68 -4 5.36 -4 4 C-3.01 4 -2.02 4 -1 4 C-0.67 2.68 -0.34 1.36 0 0 Z " fill="#22941A" transform="translate(307,152)"/>
<path d="M0 0 C0.99 0 1.98 0 3 0 C2.60196439 2.88575819 2.20990931 3.82189513 -0.0625 5.75 C-0.701875 6.1625 -1.34125 6.575 -2 7 C-2 5.68 -2 4.36 -2 3 C-1.34 2.67 -0.68 2.34 0 2 C0 1.34 0 0.68 0 0 Z " fill="#1B9111" transform="translate(185,152)"/>
</svg>
